<svg width="62" height="62" viewBox="0 0 62 62" fill="none" xmlns="http://www.w3.org/2000/svg">
<path d="M27.1218 0C34.3123 0.00871544 41.2058 2.86898 46.2902 7.95343C51.3747 13.0379 54.235 19.9314 54.2437 27.1218C54.2245 32.9628 52.3021 38.6385 48.7676 43.2888L60.8577 55.3788C61.219 55.7382 61.506 56.1653 61.702 56.6358C61.898 57.1063 61.9993 57.6108 62 58.1204C62.0007 58.6301 61.9008 59.1349 61.7061 59.6059C61.5114 60.0769 61.2257 60.5049 60.8653 60.8653C60.5049 61.2257 60.0769 61.5114 59.6059 61.7061C59.1349 61.9008 58.6301 62.0007 58.1204 62C57.6108 61.9993 57.1063 61.898 56.6358 61.702C56.1653 61.506 55.7382 61.219 55.3788 60.8577L43.2888 48.7676C38.6385 52.3021 32.9628 54.2245 27.1218 54.2437C19.9287 54.2437 13.0301 51.3862 7.9438 46.2999C2.85747 41.2135 -2.81115e-06 34.315 -2.81115e-06 27.1218C-2.81115e-06 19.9287 2.85747 13.0301 7.9438 7.9438C13.0301 2.85747 19.9287 0 27.1218 0ZM27.1218 46.4946C30.9534 46.4946 34.6989 45.3584 37.8848 43.2297C41.0706 41.101 43.5536 38.0754 45.0199 34.5355C46.4862 30.9956 46.8698 27.1003 46.1223 23.3424C45.3748 19.5845 43.5298 16.1326 40.8204 13.4232C38.1111 10.7139 34.6592 8.86884 30.9013 8.12134C27.1433 7.37384 23.2481 7.75748 19.7082 9.22376C16.1683 10.69 13.1427 13.1731 11.014 16.3589C8.88528 19.5447 7.74909 23.2903 7.74909 27.1218C7.75513 32.258 9.79811 37.182 13.4299 40.8138C17.0617 44.4456 21.9857 46.4885 27.1218 46.4946Z" fill="#005F5A"/>
<circle cx="27" cy="27" r="21" fill="white"/>
<path d="M25.1981 7.39268C24.7522 7.61561 24.585 8.39587 24.7522 9.17612C25.644 13.4675 25.644 15.251 24.808 15.251C23.972 15.251 23.8048 14.7494 22.9688 10.5137C22.6901 9.06466 22.1886 8.22867 21.5755 8.11721C20.4051 7.89428 20.3494 8.84173 21.464 11.907C22.4672 14.8051 22.5229 15.251 21.5755 15.251C21.1296 15.251 20.1822 13.8576 19.4577 12.1857C18.3987 9.73344 17.9529 9.23185 17.2841 9.67771C16.5596 10.1236 16.6153 10.5137 17.73 12.4086C19.2347 15.0838 19.2347 15.251 17.9529 15.251C17.3956 15.251 16.5038 14.4707 16.0023 13.579C15.4449 12.6315 14.7761 11.907 14.4975 11.907C13.3828 11.907 13.3828 13.0774 14.5532 14.6379C15.222 15.5853 15.6121 16.7 15.4449 17.2016C15.1105 17.9261 14.7761 17.7589 13.3828 16.2541C11.9895 14.7494 11.6551 14.5822 11.2093 15.251C10.7634 15.864 11.0421 16.4771 12.101 17.5917C13.9402 19.5423 13.3271 20.7127 11.2093 19.1522C10.3176 18.5949 9.48157 18.2048 9.25864 18.4277C8.53411 19.1522 8.97997 20.0439 10.5962 20.9357C11.5437 21.4372 12.2682 22.2732 12.2682 22.7748C12.2682 23.8337 11.6551 23.8337 10.2618 22.7748C8.92424 21.7716 7.80959 21.7159 7.80959 22.7191C7.80959 23.165 8.86851 23.8895 10.1504 24.4468C11.4322 24.9484 13.0484 25.8401 13.8287 26.3974C14.5532 27.0105 16.0023 27.6235 17.0612 27.8465C18.1201 28.0137 18.9561 28.4038 18.9561 28.6825C18.9561 29.1841 14.8319 28.0694 10.3176 26.3417C6.97361 25.0599 7.25227 25.0599 7.25227 26.286C7.25227 27.122 8.14399 27.5121 12.5468 28.3481C17.6742 29.3512 19.5134 29.9643 18.9561 30.4659C18.7889 30.6331 16.2809 30.4102 13.3828 29.9643C10.4847 29.5742 7.92106 29.2398 7.69813 29.1841C7.4752 29.1841 7.41947 29.5742 7.58666 30.02C7.80959 30.5774 8.75704 30.856 10.5405 30.856C11.9338 30.856 14.4417 31.0232 16.058 31.1904L18.9561 31.5805V33.6426C18.9561 35.7047 18.9561 35.7047 15.0548 37.0423C12.937 37.7668 11.1535 38.5471 11.1535 38.77C11.1535 39.4945 11.9338 39.2716 15.3335 37.8226C19.5134 35.9277 20.015 36.485 15.9465 38.4914C14.2188 39.3273 12.8255 40.2191 12.8255 40.442C12.8255 41.2223 13.8844 40.9436 16.1695 39.4945C18.5659 37.9898 18.9561 37.8783 18.9561 38.6028C18.9561 38.8258 17.9529 39.7732 16.7268 40.6092C15.1663 41.6681 14.6089 42.3369 15.0548 42.7828C15.4449 43.1729 16.1137 42.8385 17.2841 41.7238C18.8446 40.2191 18.9561 40.2191 18.9561 41.278C18.9561 41.9468 18.5659 42.8385 18.1201 43.3401C17.3398 44.0646 17.3956 44.2318 18.343 44.7891C18.9561 45.0678 19.5691 45.3464 19.7363 45.3464C19.9035 45.3464 20.0707 41.3894 20.0707 36.485C20.0707 29.2955 20.2379 27.5121 20.9067 26.9548C21.5755 26.3974 21.7427 26.3974 21.7427 27.0105C21.7984 27.4563 21.7427 31.8592 21.7427 36.8194C21.687 42.6713 21.9099 45.9595 22.3 46.1824C22.7459 46.4611 22.8573 43.563 22.8573 36.485C22.8016 30.9118 22.5229 26.286 22.2443 26.063C20.9067 25.2271 22.8016 24.7255 27.3717 24.7255C32.1089 24.7255 32.3876 24.7812 33.0006 26.1188C33.335 26.8433 33.8366 27.3449 34.0596 27.1777C34.3382 27.0105 34.5611 31.0232 34.5611 36.0949C34.5611 41.1665 34.7283 45.3464 35.007 45.3464C35.2299 45.2907 35.9545 45.0121 36.679 44.6219L37.9608 43.8974L36.7904 42.8385C36.1774 42.2812 35.6758 41.3337 35.6758 40.6649C35.6758 39.6617 35.8987 39.7732 37.515 41.3337C39.1312 42.8942 40.1344 43.1729 40.1344 42.0025C40.1344 41.7796 38.964 40.8321 37.5707 39.8289C34.2268 37.3767 34.8955 36.8751 38.5181 39.1602C40.1344 40.1633 41.6392 40.7207 41.9178 40.442C42.1408 40.2191 40.9146 39.2716 39.1312 38.4356C36.2889 37.0423 35.843 36.6522 35.7873 35.2589C35.7315 33.0296 37.1806 32.4165 42.1408 32.6395C44.4258 32.7509 46.265 32.5837 46.265 32.3608C46.265 32.0821 43.8685 31.9707 40.9704 32.0821C38.0723 32.1379 35.6758 32.0821 35.6758 31.8592C35.6758 31.692 38.1838 31.3019 41.249 31.1347C45.5404 30.8003 46.8223 30.5216 46.8223 29.9086C46.8223 29.407 46.4321 29.2398 45.8748 29.407C45.3175 29.5184 43.4783 29.7971 41.8064 30.02C40.1344 30.1872 38.0723 30.4659 37.2363 30.6331C36.3446 30.8003 35.6758 30.6888 35.6758 30.4102C35.6758 29.9643 37.0691 29.5742 44.4815 28.0137C46.3207 27.6235 47.3796 27.122 47.3796 26.6204C47.3796 25.5614 47.2124 25.6172 41.5277 27.5121C36.0659 29.3512 35.6758 29.407 35.6758 28.6267C35.6758 28.2923 36.1774 28.0694 36.7347 28.0694C37.3478 28.0694 39.5213 27.1777 41.6392 26.1188C43.7013 25.0599 45.7634 24.1681 46.1535 24.1681C46.4879 24.1681 46.8223 23.6665 46.8223 23.0535V21.9388L44.593 23.0535C42.5309 24.1124 42.3637 24.1124 42.3637 23.2207C42.3637 22.6634 43.1439 21.7716 44.0357 21.2701C44.9831 20.7685 45.7076 19.9325 45.7076 19.4309C45.7076 18.3162 45.3732 18.372 43.4783 19.7095C41.3605 21.2143 40.9146 19.9882 42.8095 17.8704C43.8685 16.7557 44.0914 16.1984 43.6455 15.7525C43.1439 15.251 42.6423 15.5296 41.5834 16.7C40.5245 17.9818 40.0787 18.149 39.5213 17.6474C39.0197 17.1459 39.1869 16.5885 40.3573 15.1952C41.5277 13.8019 41.6949 13.3003 41.1933 12.6315C40.636 11.9627 40.3573 12.1299 39.4099 13.5232C38.7968 14.5264 37.8494 15.251 37.2363 15.251C36.1217 15.251 36.1217 15.251 37.3478 13.2446C38.4624 11.294 38.5181 9.67771 37.4592 9.67771C37.1806 9.67771 36.4003 10.9038 35.7873 12.4643C35.1185 14.1363 34.2825 15.251 33.7809 15.251C32.6662 15.251 32.6662 15.4739 33.9481 11.7398C34.8955 9.00892 34.9513 8.6188 34.171 8.34013C33.0006 7.83854 32.9449 7.95001 32.2204 11.8513C31.7188 14.3592 31.3287 15.251 30.6599 15.251C29.8796 15.251 29.8239 14.8051 30.3255 11.5726C30.7713 8.56306 30.7156 7.83854 30.0468 7.39268C29.4338 7.05829 29.1551 7.39268 28.8764 9.00892C28.6535 10.1236 28.4863 12.0185 28.4863 13.1331C28.4306 14.6379 28.2077 15.251 27.5946 15.251C26.9258 15.251 26.7586 14.415 26.7586 11.071C26.7586 6.89109 26.5914 6.50097 25.1981 7.39268ZM37.9051 16.4771C37.9051 16.7557 33.1678 16.9229 27.3159 16.9229C21.5198 16.9229 16.7268 16.7557 16.7268 16.4771C16.7268 16.2541 21.5198 16.0869 27.3159 16.0869C33.1678 16.0869 37.9051 16.2541 37.9051 16.4771ZM39.5213 18.9293C41.6949 20.7127 41.9178 24.0567 40.0787 25.8958C38.4624 27.5121 35.3414 27.1777 33.7809 25.1156C32.722 23.6665 32.722 23.4436 33.5022 22.0503C35.1185 19.0965 39.5771 20.0997 38.7968 23.2764C38.2395 25.5057 35.1185 25.7844 35.1185 23.6108C35.1185 22.3847 36.0102 21.7159 36.9019 22.2732C37.292 22.5519 37.1806 22.8863 36.456 23.4436C35.3971 24.2239 35.3971 24.2796 36.5118 24.0567C38.0723 23.778 38.0166 21.7159 36.4003 21.493C34.5611 21.2143 33.7252 23.165 35.007 24.7812C37.2363 27.5121 41.3048 24.1124 39.3541 21.1586C38.128 19.208 36.1217 18.8178 32.7777 19.9325C29.2108 21.0471 25.421 21.0471 21.8542 19.9325C18.5102 18.8736 16.5038 19.208 15.2777 21.1029C13.7172 23.4993 15.7793 26.3417 18.6774 25.6172C20.2379 25.2271 20.7952 23.8895 20.0707 22.4404C19.4019 21.2143 18.2316 21.0471 17.3956 22.106C16.5596 23.0535 17.507 24.4468 18.6774 23.9452C19.2905 23.7223 19.5134 23.8337 19.4019 24.2796C18.7889 26.0073 15.6121 24.7255 15.6121 22.7748C15.6121 20.2669 19.5134 19.4309 20.9624 21.6602C23.3589 25.2828 17.6742 29.0169 14.4975 25.8401C12.3796 23.7223 13.4943 19.208 16.3924 18.0376C17.0054 17.7589 22.1328 17.536 27.7061 17.536C37.7936 17.4802 37.8494 17.4802 39.5213 18.9293Z" fill="#005F5A"/>
<path d="M23.972 36.1506C23.972 42.8942 24.1392 46.4611 24.5293 46.4611C25.2538 46.4611 25.3096 26.6204 24.585 26.1188C24.2506 25.9516 24.0277 30.02 23.972 36.1506Z" fill="#005F5A"/>
<path d="M26.257 36.4292C26.257 42.5598 26.4799 47.0184 26.8143 47.0184C27.093 47.0184 27.3159 42.727 27.3159 36.7636C27.3159 31.0232 27.093 26.3417 26.8143 26.1188C26.4799 25.9516 26.257 30.02 26.257 36.4292Z" fill="#005F5A"/>
<path d="M28.9879 36.5965L29.2666 47.2971L29.4338 37.0423C29.4895 31.3576 29.3781 26.5646 29.1551 26.3417C28.8765 26.063 28.8207 30.6888 28.9879 36.5965Z" fill="#005F5A"/>
<path d="M31.2172 36.3178L31.4959 46.7398L31.6631 36.7637C31.7188 31.2462 31.6073 26.5646 31.3844 26.3417C31.1058 26.0631 31.05 30.5774 31.2172 36.3178Z" fill="#005F5A"/>
<path d="M33.6695 37.2652C33.6695 42.1697 33.7809 44.1203 33.8367 41.5566C33.9481 38.9929 33.9481 34.9802 33.8367 32.6395C33.7809 30.2987 33.6695 32.3608 33.6695 37.2652Z" fill="#005F5A"/>
<path d="M8.36691 32.3608C8.36691 32.6395 10.5405 32.7509 13.2156 32.6952L18.1201 32.6395L13.9402 33.1411C7.69812 33.8656 7.53093 34.0885 13.1599 33.977C17.507 33.9213 18.1758 33.8098 18.2315 32.9181C18.343 32.0821 17.73 31.9707 13.3271 31.9707C10.5962 31.9707 8.36691 32.1379 8.36691 32.3608Z" fill="#005F5A"/>
<path d="M37.5707 33.5312C37.1806 33.7541 39.0755 33.9213 41.7506 33.977C44.8159 34.0328 45.9306 33.9213 44.8717 33.6426C42.6424 33.0853 38.351 33.0296 37.5707 33.5312Z" fill="#005F5A"/>
<path d="M12.2682 34.5901C11.2093 34.7573 10.0946 35.0917 9.76021 35.3703C9.09142 36.0391 9.53728 35.9834 13.6615 35.0917C16.894 34.3114 16.2809 34.1442 12.2682 34.5901Z" fill="#005F5A"/>
<path d="M37.7379 34.7015C36.9576 34.9802 37.515 35.3146 39.9672 36.0948C41.7506 36.6522 43.5341 37.2652 43.9242 37.3767C44.2586 37.5439 44.593 37.4324 44.593 37.098C44.593 36.8194 43.1439 36.1506 41.4162 35.649L38.1838 34.7573L40.9146 35.0916C42.4194 35.2588 43.9799 35.5375 44.3701 35.7047C44.8159 35.8719 45.1503 35.7604 45.1503 35.426C45.1503 35.1474 43.9799 34.7573 42.5866 34.5343C39.5213 34.1442 39.0755 34.1442 37.7379 34.7015Z" fill="#005F5A"/>
<path d="M13.9402 35.7605C9.9832 36.7079 9.70454 36.8194 10.1504 37.321C10.4848 37.5996 18.3988 35.3703 18.3988 34.9802C18.3988 34.7016 18.2316 34.7016 13.9402 35.7605Z" fill="#005F5A"/>
<path d="M39.4656 37.5439C43.4226 39.3831 43.4784 39.4388 43.4784 38.7143C43.4784 38.157 37.9051 35.8719 36.6233 35.8719C36.2332 35.8719 37.5707 36.6522 39.4656 37.5439Z" fill="#005F5A"/>
</svg>
