<svg width="500" height="500" viewBox="0 0 500 500" fill="none" xmlns="http://www.w3.org/2000/svg">
<circle cx="240" cy="263" r="229" fill="white"/>
<path d="M204.068 344.364C196.318 353.754 186.922 361.03 175.88 366.197C164.849 371.364 152.989 373.947 140.297 373.947C124.338 373.947 109.661 369.489 96.2759 360.572C82.8853 351.879 72.1978 339.666 64.2134 323.926L90.63 310.53C95.7967 321.338 102.844 329.676 111.776 335.551C120.453 341.666 129.963 344.718 140.297 344.718C151.807 344.718 162.151 341.546 171.318 335.197C180.234 329.103 187.276 319.822 192.443 307.364C197.609 295.155 200.193 280.364 200.193 262.989V142.489H229.443V262.989C229.443 279.655 227.328 294.921 223.109 308.78C218.635 322.645 212.286 334.504 204.068 344.364Z" fill="black"/>
<path d="M318.577 172.072H218.514V142.489H367.202L263.264 342.593H362.973V371.843H214.639L318.577 172.072Z" fill="black"/>
<path d="M362.602 371.843C358.612 371.843 355.211 370.317 352.394 367.26C349.571 364.442 348.165 361.041 348.165 357.051C348.165 353.051 349.691 349.645 352.748 346.822C355.566 344.004 358.852 342.593 362.602 342.593C366.602 342.593 370.128 344.004 373.185 346.822C376.003 349.879 377.415 353.291 377.415 357.051C377.415 361.041 376.003 364.442 373.185 367.26C370.128 370.317 366.602 371.843 362.602 371.843Z" fill="black"/>
<mask id="mask0_127_179" style="mask-type:luminance" maskUnits="userSpaceOnUse" x="62" y="304" width="31" height="31">
<path d="M62.9792 304.656H92.6615V334.339H62.9792V304.656Z" fill="white"/>
</mask>
<g mask="url(#mask0_127_179)">
<mask id="mask1_127_179" style="mask-type:luminance" maskUnits="userSpaceOnUse" x="62" y="304" width="31" height="31">
<path d="M77.823 304.656C69.6251 304.656 62.9792 311.302 62.9792 319.495C62.9792 327.693 69.6251 334.339 77.823 334.339C86.0157 334.339 92.6615 327.693 92.6615 319.495C92.6615 311.302 86.0157 304.656 77.823 304.656Z" fill="white"/>
</mask>
<g mask="url(#mask1_127_179)">
<path d="M62.9792 304.656H92.6615V334.339H62.9792V304.656Z" fill="black"/>
</g>
</g>
</svg>
